<svg version="1.2" xmlns="http://www.w3.org/2000/svg" viewBox="0 0 3619 3619" width="3619" height="3619">
	<style>
		.s0 { fill: #222222 } 
		.s1 { fill: none;stroke: #00d8ff;stroke-miterlimit:10;stroke-width: 144.7 } 
		.s2 { fill: #00d8ff } 
	</style>
	<path class="s0" d="m0 0h3618.6v3618.6h-3618.6z"/>
	<g id="Ordner 1">
		<path class="s1" d="m1431.85 2026.86c-142.45-246.12-239.47-495.18-279.93-701.89-48.72-249.06-14.28-439.53 83.86-496.3 102.27-59.22 295.75 9.45 498.75 189.7 153.51 136.29 311.08 341.25 446.32 574.91 138.67 239.54 242.62 482.16 283.01 686.35 51.17 258.44 9.73 455.91-90.58 513.94-97.37 56.35-275.45-3.29-465.43-166.74-160.44-138.11-332.15-351.47-476-599.97z"/>
		<path class="s1" d="m1806.35 1377.33c284.34 0 548.52 40.81 747.67 109.34 239.96 82.6 387.52 207.83 387.52 321.23 0 118.16-156.38 251.23-414.05 336.56-194.81 64.54-451.22 98.28-721.14 98.28-276.78 0-538.79-31.64-735.84-98.98-249.27-85.19-399.42-219.94-399.42-335.86 0-112.49 140.91-236.74 377.51-319.2 199.92-69.65 470.61-111.37 757.75-111.37z"/>
		<path class="s1" d="m1431.5 1593.91c142.03-246.33 309.4-454.79 468.3-593.04 191.45-166.6 373.66-231.84 471.87-175.21 102.34 59.01 139.51 260.96 84.7 526.89-41.44 201.04-140.28 439.95-275.17 673.82-138.25 239.75-296.59 450.94-453.32 588-198.31 173.39-390.11 236.11-490.49 178.22-97.44-56.21-134.68-240.31-87.99-486.5 39.48-208.18 138.6-463.47 282.1-712.18z"/>
		<path fill-rule="evenodd" class="s2" d="m1806.35 2019.79c-117.14 0-211.82-94.68-211.82-211.82 0-117.14 94.68-211.82 211.82-211.82 117.14 0 211.82 94.68 211.82 211.82 0 117.14-94.68 211.82-211.82 211.82z"/>
	</g>
</svg>